<?xml version="1.0" encoding="utf-8"?>
<!-- Generator: Adobe Illustrator 23.0.3, SVG Export Plug-In . SVG Version: 6.00 Build 0)  -->
<svg version="1.1" id="Layer_1" xmlns="http://www.w3.org/2000/svg" xmlns:xlink="http://www.w3.org/1999/xlink" x="0px" y="0px"
	 viewBox="0 0 1200 1200" enable-background="new 0 0 1200 1200" xml:space="preserve">
<g>
	<path fill="#0E0E0E" d="M1014.859,282.13c-97.093-102.081-238.051-153.844-418.95-153.844c-180.425,0-320.04,51.801-414.97,153.964
		C95.276,374.438,50,506.54,50,664.282c0,87.044,26.947,157.851,80.091,210.458c83.032,82.192,204.322,95.183,245.179,97.195
		c2.215,37.583,15.819,83.742,59.814,88.149c6.48,0.649,61.999-10.834,56.075-24.828c3.299,7.793,7.645,15.1,13.372,21.111
		c29.905,31.388,73.966,10.226,90.312-23.928c4.649,9.758,10.82,19.026,18.991,26.139c22.886,19.926,59.396,16.443,78.721-6.557
		c1.724-2.05,3.299-4.214,4.739-6.459c1.692,2.436,3.579,4.754,5.677,6.918c7.929,8.171,22.298,17.395,45.957,15.006
		c57.194-5.82,71.43-67.722,74.943-95.51c39.985-1.875,162.415-14.458,246.038-97.237C1123.053,822.133,1150,751.325,1150,664.282
		C1150,507.228,1103.268,375.083,1014.859,282.13z"/>
	<path fill="#F4DEB3" d="M595.909,156.175c-329.211,0-518.02,185.199-518.02,508.107c0,79.324,24.165,143.463,71.823,190.638
		c38.687,38.296,89.451,62.099,141.656,75.679c20.435,5.315,41.282,9.131,62.266,11.473c13.094,1.462,38.804-2.047,46.979,9.245
		c6.499,8.982,2.862,28.651,5.204,39.88c2.535,12.153,6.293,25.741,15.649,34.543c5.446,5.119,11.889,7.146,20.207,6.384
		c32.083-2.918,38.324-33.476,39.37-49.572c-0.16-5.813-0.004-9.937,0.062-11.361c0.358-7.373,6.396-13.19,13.777-13.271
		c0.051,0,0.105,0,0.156,0c20.862,0,14.79,63.604,29.701,79.221c4.343,4.55,9.37,6.667,15.825,6.667
		c35.285,0,40.16-68.909,40.199-69.605c0.416-7.377,6.513-13.155,13.898-13.17c7.404,0,13.505,5.735,13.948,13.1
		c1.346,21.514,7.814,57.205,29.62,67.494c24.805,11.703,42.966-18.159,44.491-38.552c0.906-12.118-5.528-43.065,15.11-43.084
		c0.099,0,0.185,0,0.274,0.004c7.089,0.128,12.952,5.556,13.625,12.618c0.093,0.984,1.132,12.583-0.354,27.519
		c1.734,19.769,4.984,39.792,28.856,38.855c16.222-0.637,35.213-12.864,43.052-26.916c8.859-15.881,13.287-35.984,13.848-54.136
		c0.234-7.582,6.382-13.581,14.069-13.53c1.533-0.051,148.646,0.183,239.218-89.608c47.572-47.163,71.695-111.263,71.695-190.514
		C1122.111,346.121,925.399,156.175,595.909,156.175z M378.837,840.503c-14.223,4.477-28.947,7.594-44.494,6.958
		c11.534-10.305,23.281-18.528,34.924-26.605c5.172-3.545,10.323-6.971,15.445-10.374c-45.063,1.455-95.983-19.649-126.922-55.847
		c-47.908-56.052-53.889-155.23,0-195.22c47.737-35.426,123.379-10.247,164.643,28.224
		C503.853,663.55,493.031,804.546,378.837,840.503z M625.136,862.151c-29.894,14.068-33.577-22.065-33.577-22.065
		s-3.545,35.804-39.333,20.146c-46.05-20.146,25.808-96.894,36.361-95.935C599.14,765.256,674.063,839.126,625.136,862.151z
		 M942.211,754.635c-32.997,38.607-88.729,60.068-135.837,55.272c5.402,3.585,10.843,7.207,16.303,10.949
		c11.643,8.077,23.389,16.3,34.923,26.605c-15.546,0.636-30.273-2.48-44.494-6.959c-56.38-18.555-91.023-58.204-90.596-118.859
		c0.338-48.001,19.872-101.196,55.06-134.003c41.263-38.472,116.905-63.65,164.641-28.224
		C996.1,599.406,990.119,698.583,942.211,754.635z"/>
	<path fill="#FFFFFF" d="M152.967,510.74c0,0,41.039-229.87,246.469-283.13s273.906-6.801,273.906-6.801
		s-213.038,14.41-334.774,94.299S152.967,510.74,152.967,510.74z"/>
	<path fill="#C4B290" d="M1050.417,855.536c-90.572,89.79-237.685,89.557-239.218,89.608c-3.056-0.019-5.845,0.945-8.14,2.556
		c-3.318-21.872,5.256-42.489,42.108-51.528c74.971-18.389,202.263-91.373,270.51-164.54
		C1105.637,780.869,1083.84,822.4,1050.417,855.536z M247.148,867.439c-61.405-17.112-123.932-96.289-167.035-162.577
		c6.908,61.178,30.202,111.801,69.598,150.799c38.687,38.297,89.451,62.1,141.656,75.679c20.435,5.315,41.282,9.132,62.266,11.474
		c9.73,1.086,26.414-0.562,37.705,3.148C376.093,915.244,329.291,890.331,247.148,867.439z"/>
</g>
</svg>
